<mxfile host="Electron" agent="Mozilla/5.0 (Windows NT 10.0; Win64; x64) AppleWebKit/537.36 (KHTML, like Gecko) draw.io/26.0.16 Chrome/132.0.6834.196 Electron/34.2.0 Safari/537.36" version="26.0.16">
  <diagram name="Page-1" id="S2ohiYedbIWQmPGG_550">
    <mxGraphModel dx="1450" dy="1021" grid="0" gridSize="10" guides="1" tooltips="1" connect="1" arrows="1" fold="1" page="0" pageScale="1" pageWidth="2000" pageHeight="2000" math="0" shadow="0">
      <root>
        <mxCell id="0" />
        <mxCell id="1" parent="0" />
        <mxCell id="1xEPdAz5YI3bWJv0vM2D-1" value="Hệ thống" style="swimlane;startSize=23;fontSize=14;" parent="1" vertex="1">
          <mxGeometry x="307" y="-327" width="864" height="1902" as="geometry" />
        </mxCell>
        <mxCell id="1xEPdAz5YI3bWJv0vM2D-2" value="Hiển thị biểu mẫu danh sách sản phẩm" style="rounded=1;whiteSpace=wrap;html=1;arcSize=40;fontColor=#000000;fillColor=#FFFFFF;strokeColor=#000000;fontSize=14;" parent="1xEPdAz5YI3bWJv0vM2D-1" vertex="1">
          <mxGeometry x="20" y="90" width="141" height="60" as="geometry" />
        </mxCell>
        <mxCell id="1xEPdAz5YI3bWJv0vM2D-9" style="edgeStyle=orthogonalEdgeStyle;rounded=0;orthogonalLoop=1;jettySize=auto;html=1;exitX=0.5;exitY=1;exitDx=0;exitDy=0;entryX=0.5;entryY=0;entryDx=0;entryDy=0;entryPerimeter=0;fontSize=14;exitPerimeter=0;" parent="1xEPdAz5YI3bWJv0vM2D-1" source="1xEPdAz5YI3bWJv0vM2D-54" target="1xEPdAz5YI3bWJv0vM2D-44" edge="1">
          <mxGeometry relative="1" as="geometry">
            <mxPoint x="430" y="470" as="targetPoint" />
            <mxPoint x="425" y="317.5" as="sourcePoint" />
          </mxGeometry>
        </mxCell>
        <mxCell id="1xEPdAz5YI3bWJv0vM2D-10" value="[Khách hàng cũ]" style="edgeLabel;html=1;align=center;verticalAlign=middle;resizable=0;points=[];fontSize=14;" parent="1xEPdAz5YI3bWJv0vM2D-9" vertex="1" connectable="0">
          <mxGeometry x="-0.7948" y="-1" relative="1" as="geometry">
            <mxPoint x="1" y="18" as="offset" />
          </mxGeometry>
        </mxCell>
        <mxCell id="1xEPdAz5YI3bWJv0vM2D-11" value="Thông báo số điện thoại không hợp lệ" style="rounded=1;whiteSpace=wrap;html=1;arcSize=40;fontColor=#000000;fillColor=#FFFFFF;strokeColor=#000000;fontSize=14;" parent="1xEPdAz5YI3bWJv0vM2D-1" vertex="1">
          <mxGeometry x="24.5" y="770" width="132" height="38" as="geometry" />
        </mxCell>
        <mxCell id="1xEPdAz5YI3bWJv0vM2D-45" style="edgeStyle=orthogonalEdgeStyle;rounded=0;orthogonalLoop=1;jettySize=auto;html=1;exitX=0.5;exitY=1;exitDx=0;exitDy=0;entryX=1;entryY=0.5;entryDx=0;entryDy=0;entryPerimeter=0;fontSize=14;exitPerimeter=0;" parent="1xEPdAz5YI3bWJv0vM2D-1" source="1xEPdAz5YI3bWJv0vM2D-55" target="1xEPdAz5YI3bWJv0vM2D-44" edge="1">
          <mxGeometry relative="1" as="geometry">
            <mxPoint x="755" y="390" as="sourcePoint" />
          </mxGeometry>
        </mxCell>
        <mxCell id="1xEPdAz5YI3bWJv0vM2D-46" value="[Hợp lệ]" style="edgeLabel;html=1;align=center;verticalAlign=middle;resizable=0;points=[];fontSize=14;" parent="1xEPdAz5YI3bWJv0vM2D-45" vertex="1" connectable="0">
          <mxGeometry x="-0.8387" y="1" relative="1" as="geometry">
            <mxPoint as="offset" />
          </mxGeometry>
        </mxCell>
        <mxCell id="1xEPdAz5YI3bWJv0vM2D-47" value="Thông báo thông tin không hợp lệ" style="rounded=1;whiteSpace=wrap;html=1;arcSize=40;fontColor=#000000;fillColor=#FFFFFF;strokeColor=#000000;fontSize=14;" parent="1xEPdAz5YI3bWJv0vM2D-1" vertex="1">
          <mxGeometry x="458" y="818" width="150" height="52.5" as="geometry" />
        </mxCell>
        <mxCell id="tTK-zyydaF6mxMZGHGKh-48" style="edgeStyle=orthogonalEdgeStyle;rounded=0;orthogonalLoop=1;jettySize=auto;html=1;exitX=1;exitY=0.5;exitDx=0;exitDy=0;exitPerimeter=0;fontSize=14;" parent="1xEPdAz5YI3bWJv0vM2D-1" source="1xEPdAz5YI3bWJv0vM2D-53" target="tTK-zyydaF6mxMZGHGKh-36" edge="1">
          <mxGeometry relative="1" as="geometry">
            <Array as="points">
              <mxPoint x="342" y="695" />
              <mxPoint x="381" y="695" />
            </Array>
          </mxGeometry>
        </mxCell>
        <mxCell id="tTK-zyydaF6mxMZGHGKh-49" value="[Hợp lệ]" style="edgeLabel;html=1;align=center;verticalAlign=middle;resizable=0;points=[];fontSize=14;" parent="tTK-zyydaF6mxMZGHGKh-48" vertex="1" connectable="0">
          <mxGeometry x="-0.916" y="1" relative="1" as="geometry">
            <mxPoint x="20" y="1" as="offset" />
          </mxGeometry>
        </mxCell>
        <mxCell id="tTK-zyydaF6mxMZGHGKh-51" style="edgeStyle=orthogonalEdgeStyle;rounded=0;orthogonalLoop=1;jettySize=auto;html=1;exitX=0.5;exitY=1;exitDx=0;exitDy=0;exitPerimeter=0;entryX=1;entryY=0.5;entryDx=0;entryDy=0;fontSize=14;" parent="1xEPdAz5YI3bWJv0vM2D-1" source="1xEPdAz5YI3bWJv0vM2D-53" target="1xEPdAz5YI3bWJv0vM2D-11" edge="1">
          <mxGeometry relative="1" as="geometry" />
        </mxCell>
        <mxCell id="tTK-zyydaF6mxMZGHGKh-52" value="[Không hợp lệ]" style="edgeLabel;html=1;align=center;verticalAlign=middle;resizable=0;points=[];fontSize=14;" parent="tTK-zyydaF6mxMZGHGKh-51" vertex="1" connectable="0">
          <mxGeometry x="-0.8969" y="2" relative="1" as="geometry">
            <mxPoint as="offset" />
          </mxGeometry>
        </mxCell>
        <mxCell id="1xEPdAz5YI3bWJv0vM2D-53" value="" style="strokeWidth=2;html=1;shape=mxgraph.flowchart.decision;whiteSpace=wrap;fontSize=14;" parent="1xEPdAz5YI3bWJv0vM2D-1" vertex="1">
          <mxGeometry x="248" y="677" width="50" height="35" as="geometry" />
        </mxCell>
        <mxCell id="1xEPdAz5YI3bWJv0vM2D-54" value="" style="strokeWidth=2;html=1;shape=mxgraph.flowchart.decision;whiteSpace=wrap;fontSize=14;" parent="1xEPdAz5YI3bWJv0vM2D-1" vertex="1">
          <mxGeometry x="334" y="1015" width="50" height="40" as="geometry" />
        </mxCell>
        <mxCell id="tTK-zyydaF6mxMZGHGKh-21" style="edgeStyle=orthogonalEdgeStyle;rounded=0;orthogonalLoop=1;jettySize=auto;html=1;exitX=0.5;exitY=0;exitDx=0;exitDy=0;exitPerimeter=0;fontSize=14;" parent="1xEPdAz5YI3bWJv0vM2D-1" source="1xEPdAz5YI3bWJv0vM2D-55" target="1xEPdAz5YI3bWJv0vM2D-47" edge="1">
          <mxGeometry relative="1" as="geometry" />
        </mxCell>
        <mxCell id="tTK-zyydaF6mxMZGHGKh-40" value="[Không hợp lệ]" style="edgeLabel;html=1;align=center;verticalAlign=middle;resizable=0;points=[];fontSize=14;" parent="tTK-zyydaF6mxMZGHGKh-21" vertex="1" connectable="0">
          <mxGeometry x="-0.6452" y="-5" relative="1" as="geometry">
            <mxPoint as="offset" />
          </mxGeometry>
        </mxCell>
        <mxCell id="1xEPdAz5YI3bWJv0vM2D-55" value="" style="strokeWidth=2;html=1;shape=mxgraph.flowchart.decision;whiteSpace=wrap;fontSize=14;" parent="1xEPdAz5YI3bWJv0vM2D-1" vertex="1">
          <mxGeometry x="508" y="911" width="50" height="40" as="geometry" />
        </mxCell>
        <mxCell id="tTK-zyydaF6mxMZGHGKh-13" value="Kiểm tra tính hợp lệ của thông tin" style="rounded=1;whiteSpace=wrap;html=1;arcSize=40;fontColor=#000000;fillColor=#FFFFFF;strokeColor=#000000;fontSize=14;" parent="1xEPdAz5YI3bWJv0vM2D-1" vertex="1">
          <mxGeometry x="148" y="904.75" width="150" height="52.5" as="geometry" />
        </mxCell>
        <mxCell id="tTK-zyydaF6mxMZGHGKh-20" style="edgeStyle=orthogonalEdgeStyle;rounded=0;orthogonalLoop=1;jettySize=auto;html=1;exitX=1;exitY=0.5;exitDx=0;exitDy=0;entryX=0;entryY=0.5;entryDx=0;entryDy=0;entryPerimeter=0;fontSize=14;" parent="1xEPdAz5YI3bWJv0vM2D-1" source="tTK-zyydaF6mxMZGHGKh-13" target="1xEPdAz5YI3bWJv0vM2D-55" edge="1">
          <mxGeometry relative="1" as="geometry" />
        </mxCell>
        <mxCell id="tTK-zyydaF6mxMZGHGKh-23" value="Kiểm tra số điện thoại khách hàng" style="rounded=1;whiteSpace=wrap;html=1;arcSize=40;fontColor=#000000;fillColor=#FFFFFF;strokeColor=#000000;fontSize=14;" parent="1xEPdAz5YI3bWJv0vM2D-1" vertex="1">
          <mxGeometry x="18" y="671" width="124" height="48" as="geometry" />
        </mxCell>
        <mxCell id="1xEPdAz5YI3bWJv0vM2D-44" value="" style="strokeWidth=2;html=1;shape=mxgraph.flowchart.decision;whiteSpace=wrap;fontSize=14;" parent="1xEPdAz5YI3bWJv0vM2D-1" vertex="1">
          <mxGeometry x="334" y="1114" width="50" height="40" as="geometry" />
        </mxCell>
        <mxCell id="tTK-zyydaF6mxMZGHGKh-36" value="Kiểm tra khách hàng có trong hệ cơ sở dữ liệu" style="rounded=1;whiteSpace=wrap;html=1;arcSize=40;fontColor=#000000;fillColor=#FFFFFF;strokeColor=#000000;fontSize=14;" parent="1xEPdAz5YI3bWJv0vM2D-1" vertex="1">
          <mxGeometry x="285" y="765" width="148" height="53" as="geometry" />
        </mxCell>
        <mxCell id="tTK-zyydaF6mxMZGHGKh-37" style="edgeStyle=orthogonalEdgeStyle;rounded=0;orthogonalLoop=1;jettySize=auto;html=1;exitX=0.5;exitY=1;exitDx=0;exitDy=0;entryX=0.5;entryY=0;entryDx=0;entryDy=0;entryPerimeter=0;fontSize=14;" parent="1xEPdAz5YI3bWJv0vM2D-1" source="tTK-zyydaF6mxMZGHGKh-36" target="1xEPdAz5YI3bWJv0vM2D-54" edge="1">
          <mxGeometry relative="1" as="geometry" />
        </mxCell>
        <mxCell id="1xEPdAz5YI3bWJv0vM2D-12" value="Hiển thị biểu mẫu điền thông tin khách hàng mới" style="rounded=1;whiteSpace=wrap;html=1;arcSize=40;fontColor=#000000;fillColor=#FFFFFF;strokeColor=#000000;fontSize=14;" parent="1xEPdAz5YI3bWJv0vM2D-1" vertex="1">
          <mxGeometry x="4" y="1010" width="150" height="50" as="geometry" />
        </mxCell>
        <mxCell id="1xEPdAz5YI3bWJv0vM2D-7" style="edgeStyle=orthogonalEdgeStyle;rounded=0;orthogonalLoop=1;jettySize=auto;html=1;exitX=0;exitY=0.5;exitDx=0;exitDy=0;entryX=1;entryY=0.5;entryDx=0;entryDy=0;fontSize=14;exitPerimeter=0;" parent="1xEPdAz5YI3bWJv0vM2D-1" source="1xEPdAz5YI3bWJv0vM2D-54" target="1xEPdAz5YI3bWJv0vM2D-12" edge="1">
          <mxGeometry relative="1" as="geometry">
            <mxPoint x="680" y="270" as="targetPoint" />
            <Array as="points" />
            <mxPoint x="425" y="222.5" as="sourcePoint" />
          </mxGeometry>
        </mxCell>
        <mxCell id="1xEPdAz5YI3bWJv0vM2D-8" value="[Khách hàng&amp;nbsp;&lt;span style=&quot;background-color: light-dark(#ffffff, var(--ge-dark-color, #121212)); color: light-dark(rgb(0, 0, 0), rgb(255, 255, 255));&quot;&gt;mới]&lt;/span&gt;" style="edgeLabel;html=1;align=center;verticalAlign=middle;resizable=0;points=[];fontSize=14;" parent="1xEPdAz5YI3bWJv0vM2D-7" vertex="1" connectable="0">
          <mxGeometry x="-0.2563" y="1" relative="1" as="geometry">
            <mxPoint x="-14" y="-1" as="offset" />
          </mxGeometry>
        </mxCell>
        <mxCell id="tTK-zyydaF6mxMZGHGKh-50" style="edgeStyle=orthogonalEdgeStyle;rounded=0;orthogonalLoop=1;jettySize=auto;html=1;exitX=1;exitY=0.5;exitDx=0;exitDy=0;entryX=0;entryY=0.5;entryDx=0;entryDy=0;entryPerimeter=0;fontSize=14;" parent="1xEPdAz5YI3bWJv0vM2D-1" source="tTK-zyydaF6mxMZGHGKh-23" target="1xEPdAz5YI3bWJv0vM2D-53" edge="1">
          <mxGeometry relative="1" as="geometry" />
        </mxCell>
        <mxCell id="tTK-zyydaF6mxMZGHGKh-71" style="edgeStyle=orthogonalEdgeStyle;rounded=0;orthogonalLoop=1;jettySize=auto;html=1;exitX=1;exitY=0.5;exitDx=0;exitDy=0;exitPerimeter=0;entryX=0.5;entryY=1;entryDx=0;entryDy=0;fontSize=14;" parent="1xEPdAz5YI3bWJv0vM2D-1" source="tTK-zyydaF6mxMZGHGKh-55" target="tTK-zyydaF6mxMZGHGKh-86" edge="1">
          <mxGeometry relative="1" as="geometry">
            <mxPoint x="450" y="349" as="targetPoint" />
          </mxGeometry>
        </mxCell>
        <mxCell id="tTK-zyydaF6mxMZGHGKh-72" value="[Không đủ]" style="edgeLabel;html=1;align=center;verticalAlign=middle;resizable=0;points=[];fontSize=14;" parent="tTK-zyydaF6mxMZGHGKh-71" vertex="1" connectable="0">
          <mxGeometry x="-0.7227" y="-1" relative="1" as="geometry">
            <mxPoint x="16" y="-1" as="offset" />
          </mxGeometry>
        </mxCell>
        <mxCell id="tTK-zyydaF6mxMZGHGKh-101" value="" style="edgeStyle=orthogonalEdgeStyle;rounded=0;orthogonalLoop=1;jettySize=auto;html=1;fontSize=14;" parent="1xEPdAz5YI3bWJv0vM2D-1" source="tTK-zyydaF6mxMZGHGKh-68" target="tTK-zyydaF6mxMZGHGKh-55" edge="1">
          <mxGeometry relative="1" as="geometry" />
        </mxCell>
        <mxCell id="tTK-zyydaF6mxMZGHGKh-68" value="Kiểm tra tồn kho" style="rounded=1;whiteSpace=wrap;html=1;arcSize=40;fontColor=#000000;fillColor=#FFFFFF;strokeColor=#000000;fontSize=14;" parent="1xEPdAz5YI3bWJv0vM2D-1" vertex="1">
          <mxGeometry x="241" y="411" width="104" height="35" as="geometry" />
        </mxCell>
        <mxCell id="tTK-zyydaF6mxMZGHGKh-86" value="Thông báo số lượng sản phẩm trong kho không đủ" style="rounded=1;whiteSpace=wrap;html=1;arcSize=40;fontColor=#000000;fillColor=#FFFFFF;strokeColor=#000000;fontSize=14;" parent="1xEPdAz5YI3bWJv0vM2D-1" vertex="1">
          <mxGeometry x="354" y="294" width="179" height="51" as="geometry" />
        </mxCell>
        <mxCell id="tTK-zyydaF6mxMZGHGKh-89" value="Hiển thị các sản phẩm trùng khớp" style="rounded=1;whiteSpace=wrap;html=1;arcSize=40;fontColor=#000000;fillColor=#FFFFFF;strokeColor=#000000;fontSize=14;" parent="1xEPdAz5YI3bWJv0vM2D-1" vertex="1">
          <mxGeometry x="103" y="237" width="94" height="61.5" as="geometry" />
        </mxCell>
        <mxCell id="tTK-zyydaF6mxMZGHGKh-104" style="edgeStyle=orthogonalEdgeStyle;rounded=0;orthogonalLoop=1;jettySize=auto;html=1;exitX=0.5;exitY=1;exitDx=0;exitDy=0;exitPerimeter=0;entryX=0.5;entryY=0;entryDx=0;entryDy=0;fontSize=14;" parent="1xEPdAz5YI3bWJv0vM2D-1" source="tTK-zyydaF6mxMZGHGKh-63" target="tTK-zyydaF6mxMZGHGKh-105" edge="1">
          <mxGeometry relative="1" as="geometry">
            <mxPoint x="78" y="549.4000244140625" as="targetPoint" />
          </mxGeometry>
        </mxCell>
        <mxCell id="tTK-zyydaF6mxMZGHGKh-63" value="" style="strokeWidth=2;html=1;shape=mxgraph.flowchart.decision;whiteSpace=wrap;fontSize=14;" parent="1xEPdAz5YI3bWJv0vM2D-1" vertex="1">
          <mxGeometry x="57" y="488" width="50" height="35" as="geometry" />
        </mxCell>
        <mxCell id="tTK-zyydaF6mxMZGHGKh-55" value="" style="strokeWidth=2;html=1;shape=mxgraph.flowchart.decision;whiteSpace=wrap;fontSize=14;" parent="1xEPdAz5YI3bWJv0vM2D-1" vertex="1">
          <mxGeometry x="268" y="488" width="50" height="35" as="geometry" />
        </mxCell>
        <mxCell id="tTK-zyydaF6mxMZGHGKh-99" style="edgeStyle=orthogonalEdgeStyle;rounded=0;orthogonalLoop=1;jettySize=auto;html=1;exitX=0;exitY=0.5;exitDx=0;exitDy=0;exitPerimeter=0;entryX=1;entryY=0.5;entryDx=0;entryDy=0;entryPerimeter=0;fontSize=14;" parent="1xEPdAz5YI3bWJv0vM2D-1" source="tTK-zyydaF6mxMZGHGKh-55" target="tTK-zyydaF6mxMZGHGKh-63" edge="1">
          <mxGeometry relative="1" as="geometry" />
        </mxCell>
        <mxCell id="tTK-zyydaF6mxMZGHGKh-100" value="[Đủ]" style="edgeLabel;html=1;align=center;verticalAlign=middle;resizable=0;points=[];fontSize=14;" parent="tTK-zyydaF6mxMZGHGKh-99" vertex="1" connectable="0">
          <mxGeometry x="-0.8764" y="-1" relative="1" as="geometry">
            <mxPoint x="-12" y="1" as="offset" />
          </mxGeometry>
        </mxCell>
        <mxCell id="tTK-zyydaF6mxMZGHGKh-105" value="Cập nhật hóa đơn" style="rounded=1;whiteSpace=wrap;html=1;arcSize=40;fontColor=#000000;fillColor=#FFFFFF;strokeColor=#000000;fontSize=14;" parent="1xEPdAz5YI3bWJv0vM2D-1" vertex="1">
          <mxGeometry x="22" y="553" width="122" height="31" as="geometry" />
        </mxCell>
        <mxCell id="tTK-zyydaF6mxMZGHGKh-116" value="" style="ellipse;html=1;shape=endState;fillColor=#000000;strokeColor=#000000;fontSize=14;" parent="1xEPdAz5YI3bWJv0vM2D-1" vertex="1">
          <mxGeometry x="759.5" y="1856" width="30" height="30" as="geometry" />
        </mxCell>
        <mxCell id="tTK-zyydaF6mxMZGHGKh-117" value="Xử lý thanh toán" style="rounded=1;whiteSpace=wrap;html=1;arcSize=40;fontColor=#000000;fillColor=#FFFFFF;strokeColor=#000000;fontSize=14;" parent="1xEPdAz5YI3bWJv0vM2D-1" vertex="1">
          <mxGeometry x="12" y="1400" width="120" height="40" as="geometry" />
        </mxCell>
        <mxCell id="tTK-zyydaF6mxMZGHGKh-118" value="" style="edgeStyle=orthogonalEdgeStyle;rounded=0;orthogonalLoop=1;jettySize=auto;html=1;entryX=0.477;entryY=0.363;entryDx=0;entryDy=0;entryPerimeter=0;startArrow=classic;startFill=1;endArrow=none;fontSize=14;" parent="1xEPdAz5YI3bWJv0vM2D-1" source="tTK-zyydaF6mxMZGHGKh-119" target="tTK-zyydaF6mxMZGHGKh-120" edge="1">
          <mxGeometry relative="1" as="geometry" />
        </mxCell>
        <mxCell id="tTK-zyydaF6mxMZGHGKh-119" value="Cập nhật hóa đơn và doanh thu" style="rounded=1;whiteSpace=wrap;html=1;arcSize=40;fontColor=#000000;fillColor=#FFFFFF;strokeColor=#000000;fontSize=14;" parent="1xEPdAz5YI3bWJv0vM2D-1" vertex="1">
          <mxGeometry x="311" y="1456" width="145" height="40" as="geometry" />
        </mxCell>
        <mxCell id="tTK-zyydaF6mxMZGHGKh-120" value="" style="shape=line;html=1;strokeWidth=6;strokeColor=#000000;rotation=-90;fontSize=14;" parent="1xEPdAz5YI3bWJv0vM2D-1" vertex="1">
          <mxGeometry x="132" y="1467" width="158" height="10" as="geometry" />
        </mxCell>
        <mxCell id="tTK-zyydaF6mxMZGHGKh-121" style="edgeStyle=orthogonalEdgeStyle;rounded=0;orthogonalLoop=1;jettySize=auto;html=1;exitX=0.5;exitY=1;exitDx=0;exitDy=0;fontSize=14;" parent="1xEPdAz5YI3bWJv0vM2D-1" edge="1">
          <mxGeometry relative="1" as="geometry">
            <mxPoint x="246" y="1601" as="sourcePoint" />
            <mxPoint x="246" y="1601" as="targetPoint" />
          </mxGeometry>
        </mxCell>
        <mxCell id="tTK-zyydaF6mxMZGHGKh-122" value="" style="shape=line;html=1;strokeWidth=6;strokeColor=#000000;rotation=-90;fontSize=14;" parent="1xEPdAz5YI3bWJv0vM2D-1" vertex="1">
          <mxGeometry x="636.5" y="1466.5" width="129" height="10" as="geometry" />
        </mxCell>
        <mxCell id="tTK-zyydaF6mxMZGHGKh-123" value="Thêm khách hàng mới vào danh sách" style="rounded=1;whiteSpace=wrap;html=1;arcSize=40;fontColor=#000000;fillColor=#FFFFFF;strokeColor=#000000;fontSize=14;" parent="1xEPdAz5YI3bWJv0vM2D-1" vertex="1">
          <mxGeometry x="286" y="1601" width="150" height="50" as="geometry" />
        </mxCell>
        <mxCell id="tTK-zyydaF6mxMZGHGKh-124" style="edgeStyle=orthogonalEdgeStyle;rounded=0;orthogonalLoop=1;jettySize=auto;html=1;exitX=1;exitY=0.5;exitDx=0;exitDy=0;exitPerimeter=0;entryX=0.5;entryY=1;entryDx=0;entryDy=0;fontSize=14;" parent="1xEPdAz5YI3bWJv0vM2D-1" source="tTK-zyydaF6mxMZGHGKh-125" target="tTK-zyydaF6mxMZGHGKh-126" edge="1">
          <mxGeometry relative="1" as="geometry" />
        </mxCell>
        <mxCell id="tTK-zyydaF6mxMZGHGKh-125" value="" style="strokeWidth=2;html=1;shape=mxgraph.flowchart.decision;whiteSpace=wrap;fontSize=14;" parent="1xEPdAz5YI3bWJv0vM2D-1" vertex="1">
          <mxGeometry x="486" y="1606" width="50" height="40" as="geometry" />
        </mxCell>
        <mxCell id="tTK-zyydaF6mxMZGHGKh-126" value="Cập nhật lịch sử mua hàng của khách hàng" style="rounded=1;whiteSpace=wrap;html=1;arcSize=40;fontColor=#000000;fillColor=#FFFFFF;strokeColor=#000000;fontSize=14;" parent="1xEPdAz5YI3bWJv0vM2D-1" vertex="1">
          <mxGeometry x="526" y="1491" width="140" height="55" as="geometry" />
        </mxCell>
        <mxCell id="tTK-zyydaF6mxMZGHGKh-127" value="Cập nhật lịch sử bán hàng của nhân viên" style="rounded=1;whiteSpace=wrap;html=1;arcSize=40;fontColor=#000000;fillColor=#FFFFFF;strokeColor=#000000;fontSize=14;" parent="1xEPdAz5YI3bWJv0vM2D-1" vertex="1">
          <mxGeometry x="306" y="1403" width="155" height="40" as="geometry" />
        </mxCell>
        <mxCell id="tTK-zyydaF6mxMZGHGKh-128" style="edgeStyle=orthogonalEdgeStyle;rounded=0;orthogonalLoop=1;jettySize=auto;html=1;fontSize=14;" parent="1xEPdAz5YI3bWJv0vM2D-1" source="tTK-zyydaF6mxMZGHGKh-135" target="tTK-zyydaF6mxMZGHGKh-116" edge="1">
          <mxGeometry relative="1" as="geometry">
            <mxPoint x="751" y="1534" as="sourcePoint" />
          </mxGeometry>
        </mxCell>
        <mxCell id="tTK-zyydaF6mxMZGHGKh-129" value="[Thành công]" style="edgeLabel;html=1;align=center;verticalAlign=middle;resizable=0;points=[];fontSize=14;" parent="tTK-zyydaF6mxMZGHGKh-128" vertex="1" connectable="0">
          <mxGeometry x="0.1635" y="-2" relative="1" as="geometry">
            <mxPoint as="offset" />
          </mxGeometry>
        </mxCell>
        <mxCell id="tTK-zyydaF6mxMZGHGKh-130" value="Xuất hóa đơn" style="rounded=1;whiteSpace=wrap;html=1;arcSize=40;fontColor=#000000;fillColor=#FFFFFF;strokeColor=#000000;fontSize=14;" parent="1xEPdAz5YI3bWJv0vM2D-1" vertex="1">
          <mxGeometry x="568" y="1741" width="120" height="40" as="geometry" />
        </mxCell>
        <mxCell id="tTK-zyydaF6mxMZGHGKh-131" style="edgeStyle=orthogonalEdgeStyle;rounded=0;orthogonalLoop=1;jettySize=auto;html=1;exitX=1;exitY=0.5;exitDx=0;exitDy=0;entryX=0.5;entryY=0;entryDx=0;entryDy=0;entryPerimeter=0;exitPerimeter=0;fontSize=14;" parent="1xEPdAz5YI3bWJv0vM2D-1" source="tTK-zyydaF6mxMZGHGKh-138" target="tTK-zyydaF6mxMZGHGKh-125" edge="1">
          <mxGeometry relative="1" as="geometry">
            <mxPoint x="456" y="1518.5" as="sourcePoint" />
          </mxGeometry>
        </mxCell>
        <mxCell id="tTK-zyydaF6mxMZGHGKh-132" value="[Khách hàng cũ]" style="edgeLabel;html=1;align=center;verticalAlign=middle;resizable=0;points=[];fontSize=14;" parent="tTK-zyydaF6mxMZGHGKh-131" vertex="1" connectable="0">
          <mxGeometry x="-0.2521" y="2" relative="1" as="geometry">
            <mxPoint as="offset" />
          </mxGeometry>
        </mxCell>
        <mxCell id="tTK-zyydaF6mxMZGHGKh-133" style="edgeStyle=orthogonalEdgeStyle;rounded=0;orthogonalLoop=1;jettySize=auto;html=1;exitX=1;exitY=0.5;exitDx=0;exitDy=0;entryX=0;entryY=0.5;entryDx=0;entryDy=0;entryPerimeter=0;fontSize=14;" parent="1xEPdAz5YI3bWJv0vM2D-1" source="tTK-zyydaF6mxMZGHGKh-123" target="tTK-zyydaF6mxMZGHGKh-125" edge="1">
          <mxGeometry relative="1" as="geometry" />
        </mxCell>
        <mxCell id="tTK-zyydaF6mxMZGHGKh-135" value="" style="strokeWidth=2;html=1;shape=mxgraph.flowchart.decision;whiteSpace=wrap;fontSize=14;" parent="1xEPdAz5YI3bWJv0vM2D-1" vertex="1">
          <mxGeometry x="301" y="1785" width="55" height="50" as="geometry" />
        </mxCell>
        <mxCell id="tTK-zyydaF6mxMZGHGKh-137" value="" style="edgeStyle=orthogonalEdgeStyle;rounded=0;orthogonalLoop=1;jettySize=auto;html=1;fontSize=14;" parent="1xEPdAz5YI3bWJv0vM2D-1" source="tTK-zyydaF6mxMZGHGKh-138" target="tTK-zyydaF6mxMZGHGKh-123" edge="1">
          <mxGeometry relative="1" as="geometry" />
        </mxCell>
        <mxCell id="tTK-zyydaF6mxMZGHGKh-138" value="" style="strokeWidth=2;html=1;shape=mxgraph.flowchart.decision;whiteSpace=wrap;fontSize=14;" parent="1xEPdAz5YI3bWJv0vM2D-1" vertex="1">
          <mxGeometry x="336" y="1506" width="50" height="40" as="geometry" />
        </mxCell>
        <mxCell id="tTK-zyydaF6mxMZGHGKh-139" value="[Khách hàng mới]" style="edgeLabel;html=1;align=center;verticalAlign=middle;resizable=0;points=[];fontSize=14;rotation=0;" parent="1xEPdAz5YI3bWJv0vM2D-1" vertex="1" connectable="0">
          <mxGeometry x="355.99907582699575" y="1580.999086321896" as="geometry">
            <mxPoint x="13" y="-14" as="offset" />
          </mxGeometry>
        </mxCell>
        <mxCell id="tTK-zyydaF6mxMZGHGKh-140" style="edgeStyle=orthogonalEdgeStyle;rounded=0;orthogonalLoop=1;jettySize=auto;html=1;exitX=0;exitY=0.5;exitDx=0;exitDy=0;entryX=0.805;entryY=0.24;entryDx=0;entryDy=0;entryPerimeter=0;startArrow=classic;startFill=1;endArrow=none;fontSize=14;" parent="1xEPdAz5YI3bWJv0vM2D-1" source="tTK-zyydaF6mxMZGHGKh-127" target="tTK-zyydaF6mxMZGHGKh-120" edge="1">
          <mxGeometry relative="1" as="geometry" />
        </mxCell>
        <mxCell id="tTK-zyydaF6mxMZGHGKh-141" style="edgeStyle=orthogonalEdgeStyle;rounded=0;orthogonalLoop=1;jettySize=auto;html=1;exitX=0;exitY=0.5;exitDx=0;exitDy=0;exitPerimeter=0;entryX=0.156;entryY=0.5;entryDx=0;entryDy=0;entryPerimeter=0;startArrow=classic;startFill=1;endArrow=none;fontSize=14;" parent="1xEPdAz5YI3bWJv0vM2D-1" source="tTK-zyydaF6mxMZGHGKh-138" target="tTK-zyydaF6mxMZGHGKh-120" edge="1">
          <mxGeometry relative="1" as="geometry" />
        </mxCell>
        <mxCell id="tTK-zyydaF6mxMZGHGKh-146" style="edgeStyle=orthogonalEdgeStyle;rounded=0;orthogonalLoop=1;jettySize=auto;html=1;exitX=1;exitY=0.5;exitDx=0;exitDy=0;entryX=0.879;entryY=0.283;entryDx=0;entryDy=0;entryPerimeter=0;fontSize=14;" parent="1xEPdAz5YI3bWJv0vM2D-1" source="tTK-zyydaF6mxMZGHGKh-127" target="tTK-zyydaF6mxMZGHGKh-122" edge="1">
          <mxGeometry relative="1" as="geometry" />
        </mxCell>
        <mxCell id="tTK-zyydaF6mxMZGHGKh-147" style="edgeStyle=orthogonalEdgeStyle;rounded=0;orthogonalLoop=1;jettySize=auto;html=1;exitX=1;exitY=0.5;exitDx=0;exitDy=0;entryX=0.469;entryY=0.63;entryDx=0;entryDy=0;entryPerimeter=0;fontSize=14;" parent="1xEPdAz5YI3bWJv0vM2D-1" source="tTK-zyydaF6mxMZGHGKh-119" target="tTK-zyydaF6mxMZGHGKh-122" edge="1">
          <mxGeometry relative="1" as="geometry" />
        </mxCell>
        <mxCell id="tTK-zyydaF6mxMZGHGKh-148" style="edgeStyle=orthogonalEdgeStyle;rounded=0;orthogonalLoop=1;jettySize=auto;html=1;exitX=1;exitY=0.5;exitDx=0;exitDy=0;entryX=0.137;entryY=0.743;entryDx=0;entryDy=0;entryPerimeter=0;fontSize=14;" parent="1xEPdAz5YI3bWJv0vM2D-1" source="tTK-zyydaF6mxMZGHGKh-126" target="tTK-zyydaF6mxMZGHGKh-122" edge="1">
          <mxGeometry relative="1" as="geometry" />
        </mxCell>
        <mxCell id="tTK-zyydaF6mxMZGHGKh-149" style="edgeStyle=orthogonalEdgeStyle;rounded=0;orthogonalLoop=1;jettySize=auto;html=1;entryX=0.4;entryY=0.253;entryDx=0;entryDy=0;entryPerimeter=0;fontSize=14;exitX=1;exitY=0.5;exitDx=0;exitDy=0;exitPerimeter=0;" parent="1xEPdAz5YI3bWJv0vM2D-1" source="tTK-zyydaF6mxMZGHGKh-204" target="tTK-zyydaF6mxMZGHGKh-120" edge="1">
          <mxGeometry relative="1" as="geometry">
            <mxPoint x="169" y="1564" as="sourcePoint" />
          </mxGeometry>
        </mxCell>
        <mxCell id="tTK-zyydaF6mxMZGHGKh-206" value="[Thanh toán&lt;div&gt;thành công]&lt;/div&gt;" style="edgeLabel;html=1;align=center;verticalAlign=middle;resizable=0;points=[];fontSize=14;" parent="tTK-zyydaF6mxMZGHGKh-149" vertex="1" connectable="0">
          <mxGeometry x="-0.5612" y="-1" relative="1" as="geometry">
            <mxPoint x="12" y="5" as="offset" />
          </mxGeometry>
        </mxCell>
        <mxCell id="tTK-zyydaF6mxMZGHGKh-154" value="Hiển thị các khuyến mãi có thể áp dụng cho hóa đơn" style="rounded=1;whiteSpace=wrap;html=1;arcSize=40;fontColor=#000000;fillColor=#FFFFFF;strokeColor=#000000;fontSize=14;" parent="1xEPdAz5YI3bWJv0vM2D-1" vertex="1">
          <mxGeometry x="236" y="1205" width="141" height="60" as="geometry" />
        </mxCell>
        <mxCell id="tTK-zyydaF6mxMZGHGKh-160" value="Cập nhật hóa đơn" style="rounded=1;whiteSpace=wrap;html=1;arcSize=40;fontColor=#000000;fillColor=#FFFFFF;strokeColor=#000000;fontSize=14;" parent="1xEPdAz5YI3bWJv0vM2D-1" vertex="1">
          <mxGeometry x="268" y="1320" width="122" height="31" as="geometry" />
        </mxCell>
        <mxCell id="tTK-zyydaF6mxMZGHGKh-202" value="" style="edgeStyle=orthogonalEdgeStyle;rounded=0;orthogonalLoop=1;jettySize=auto;html=1;fontSize=14;" parent="1xEPdAz5YI3bWJv0vM2D-1" source="tTK-zyydaF6mxMZGHGKh-166" target="tTK-zyydaF6mxMZGHGKh-130" edge="1">
          <mxGeometry relative="1" as="geometry" />
        </mxCell>
        <mxCell id="tTK-zyydaF6mxMZGHGKh-166" value="Thông báo thanh toán thành công" style="rounded=1;whiteSpace=wrap;html=1;arcSize=40;fontColor=#000000;fillColor=#FFFFFF;strokeColor=#000000;fontSize=14;" parent="1xEPdAz5YI3bWJv0vM2D-1" vertex="1">
          <mxGeometry x="728" y="1741" width="120" height="40" as="geometry" />
        </mxCell>
        <mxCell id="tTK-zyydaF6mxMZGHGKh-179" style="edgeStyle=orthogonalEdgeStyle;rounded=0;orthogonalLoop=1;jettySize=auto;html=1;entryX=0.461;entryY=0.221;entryDx=0;entryDy=0;entryPerimeter=0;endArrow=none;startFill=1;startArrow=classic;fontSize=14;" parent="1xEPdAz5YI3bWJv0vM2D-1" source="tTK-zyydaF6mxMZGHGKh-166" target="tTK-zyydaF6mxMZGHGKh-122" edge="1">
          <mxGeometry relative="1" as="geometry">
            <mxPoint x="731" y="1476" as="sourcePoint" />
            <Array as="points">
              <mxPoint x="794" y="1477" />
            </Array>
          </mxGeometry>
        </mxCell>
        <mxCell id="tTK-zyydaF6mxMZGHGKh-184" style="edgeStyle=orthogonalEdgeStyle;rounded=0;orthogonalLoop=1;jettySize=auto;html=1;exitX=0;exitY=0.5;exitDx=0;exitDy=0;entryX=0.5;entryY=0;entryDx=0;entryDy=0;entryPerimeter=0;fontSize=14;" parent="1xEPdAz5YI3bWJv0vM2D-1" source="tTK-zyydaF6mxMZGHGKh-130" target="tTK-zyydaF6mxMZGHGKh-135" edge="1">
          <mxGeometry relative="1" as="geometry" />
        </mxCell>
        <mxCell id="tTK-zyydaF6mxMZGHGKh-199" value="" style="ellipse;html=1;shape=endState;fillColor=#000000;strokeColor=#000000;fontSize=14;" parent="1xEPdAz5YI3bWJv0vM2D-1" vertex="1">
          <mxGeometry x="255" y="1741" width="30" height="30" as="geometry" />
        </mxCell>
        <mxCell id="tTK-zyydaF6mxMZGHGKh-203" value="" style="edgeStyle=orthogonalEdgeStyle;rounded=0;orthogonalLoop=1;jettySize=auto;html=1;fontSize=14;" parent="1xEPdAz5YI3bWJv0vM2D-1" source="tTK-zyydaF6mxMZGHGKh-200" target="tTK-zyydaF6mxMZGHGKh-199" edge="1">
          <mxGeometry relative="1" as="geometry" />
        </mxCell>
        <mxCell id="tTK-zyydaF6mxMZGHGKh-200" value="Thông báo hủy hóa đơn hiện tại" style="rounded=1;whiteSpace=wrap;html=1;arcSize=40;fontColor=#000000;fillColor=#FFFFFF;strokeColor=#000000;fontSize=14;" parent="1xEPdAz5YI3bWJv0vM2D-1" vertex="1">
          <mxGeometry x="51" y="1731" width="150" height="50" as="geometry" />
        </mxCell>
        <mxCell id="tTK-zyydaF6mxMZGHGKh-204" value="" style="strokeWidth=2;html=1;shape=mxgraph.flowchart.decision;whiteSpace=wrap;fontSize=14;" parent="1xEPdAz5YI3bWJv0vM2D-1" vertex="1">
          <mxGeometry x="51" y="1480" width="55" height="50" as="geometry" />
        </mxCell>
        <mxCell id="tTK-zyydaF6mxMZGHGKh-205" style="edgeStyle=orthogonalEdgeStyle;rounded=0;orthogonalLoop=1;jettySize=auto;html=1;exitX=0.571;exitY=1.017;exitDx=0;exitDy=0;entryX=0.5;entryY=0;entryDx=0;entryDy=0;entryPerimeter=0;exitPerimeter=0;fontSize=14;" parent="1xEPdAz5YI3bWJv0vM2D-1" source="tTK-zyydaF6mxMZGHGKh-117" target="tTK-zyydaF6mxMZGHGKh-204" edge="1">
          <mxGeometry relative="1" as="geometry" />
        </mxCell>
        <mxCell id="1xEPdAz5YI3bWJv0vM2D-57" value="Nhân viên bán hàng" style="swimlane;startSize=23;fontSize=14;" parent="1" vertex="1">
          <mxGeometry x="-92" y="-327" width="398" height="1900" as="geometry" />
        </mxCell>
        <mxCell id="1xEPdAz5YI3bWJv0vM2D-58" value="Chọn chức năng bán hàng" style="rounded=1;whiteSpace=wrap;html=1;arcSize=40;fontColor=#000000;fillColor=#FFFFFF;strokeColor=#000000;fontSize=14;" parent="1xEPdAz5YI3bWJv0vM2D-57" vertex="1">
          <mxGeometry x="30" y="90" width="130" height="60" as="geometry" />
        </mxCell>
        <mxCell id="1xEPdAz5YI3bWJv0vM2D-59" value="" style="ellipse;html=1;shape=startState;fillColor=#000000;strokeColor=#000000;fontSize=14;" parent="1xEPdAz5YI3bWJv0vM2D-57" vertex="1">
          <mxGeometry x="80" y="30" width="30" height="30" as="geometry" />
        </mxCell>
        <mxCell id="1xEPdAz5YI3bWJv0vM2D-60" value="" style="edgeStyle=orthogonalEdgeStyle;html=1;verticalAlign=bottom;endArrow=classic;endSize=8;strokeColor=#000000;rounded=0;entryX=0.5;entryY=0;entryDx=0;entryDy=0;fontSize=14;endFill=1;" parent="1xEPdAz5YI3bWJv0vM2D-57" source="1xEPdAz5YI3bWJv0vM2D-59" target="1xEPdAz5YI3bWJv0vM2D-58" edge="1">
          <mxGeometry relative="1" as="geometry">
            <mxPoint x="90" y="130" as="targetPoint" />
          </mxGeometry>
        </mxCell>
        <mxCell id="tTK-zyydaF6mxMZGHGKh-58" style="edgeStyle=orthogonalEdgeStyle;rounded=0;orthogonalLoop=1;jettySize=auto;html=1;exitX=0.5;exitY=1;exitDx=0;exitDy=0;fontSize=14;" parent="1xEPdAz5YI3bWJv0vM2D-57" source="1xEPdAz5YI3bWJv0vM2D-62" target="tTK-zyydaF6mxMZGHGKh-57" edge="1">
          <mxGeometry relative="1" as="geometry" />
        </mxCell>
        <mxCell id="1xEPdAz5YI3bWJv0vM2D-62" value="Thực hiện thao tác quản lý các danh sách sản phẩm bán ra" style="rounded=1;whiteSpace=wrap;html=1;arcSize=40;fontColor=#000000;fillColor=#FFFFFF;strokeColor=#000000;fontSize=14;" parent="1xEPdAz5YI3bWJv0vM2D-57" vertex="1">
          <mxGeometry x="18" y="164" width="192" height="56" as="geometry" />
        </mxCell>
        <mxCell id="1xEPdAz5YI3bWJv0vM2D-63" value="Nhập số điện thoại khách hàng" style="rounded=1;whiteSpace=wrap;html=1;arcSize=40;fontColor=#000000;fillColor=#FFFFFF;strokeColor=#000000;fontSize=14;" parent="1xEPdAz5YI3bWJv0vM2D-57" vertex="1">
          <mxGeometry x="11" y="690" width="152" height="70" as="geometry" />
        </mxCell>
        <mxCell id="1xEPdAz5YI3bWJv0vM2D-65" value="Điền thông tin vào biểu mẫu" style="rounded=1;whiteSpace=wrap;html=1;arcSize=40;fontColor=#000000;fillColor=#FFFFFF;strokeColor=#000000;fontSize=14;" parent="1xEPdAz5YI3bWJv0vM2D-57" vertex="1">
          <mxGeometry x="235" y="911" width="120" height="40" as="geometry" />
        </mxCell>
        <mxCell id="tTK-zyydaF6mxMZGHGKh-60" style="edgeStyle=orthogonalEdgeStyle;rounded=0;orthogonalLoop=1;jettySize=auto;html=1;exitX=0.5;exitY=1;exitDx=0;exitDy=0;exitPerimeter=0;fontSize=14;entryX=0;entryY=0.5;entryDx=0;entryDy=0;" parent="1xEPdAz5YI3bWJv0vM2D-57" source="tTK-zyydaF6mxMZGHGKh-57" target="tTK-zyydaF6mxMZGHGKh-75" edge="1">
          <mxGeometry relative="1" as="geometry">
            <mxPoint x="114" y="389" as="targetPoint" />
          </mxGeometry>
        </mxCell>
        <mxCell id="tTK-zyydaF6mxMZGHGKh-57" value="" style="strokeWidth=2;html=1;shape=mxgraph.flowchart.decision;whiteSpace=wrap;fontSize=14;" parent="1xEPdAz5YI3bWJv0vM2D-57" vertex="1">
          <mxGeometry x="89" y="258" width="50" height="35" as="geometry" />
        </mxCell>
        <mxCell id="tTK-zyydaF6mxMZGHGKh-75" value="Nhập số lượng" style="rounded=1;whiteSpace=wrap;html=1;arcSize=40;fontColor=#000000;fillColor=#FFFFFF;strokeColor=#000000;fontSize=14;" parent="1xEPdAz5YI3bWJv0vM2D-57" vertex="1">
          <mxGeometry x="254" y="413" width="112" height="31" as="geometry" />
        </mxCell>
        <mxCell id="tTK-zyydaF6mxMZGHGKh-54" value="Nhập thông tin sản phẩm" style="rounded=1;whiteSpace=wrap;html=1;arcSize=40;fontColor=#000000;fillColor=#FFFFFF;strokeColor=#000000;fontSize=14;" parent="1xEPdAz5YI3bWJv0vM2D-57" vertex="1">
          <mxGeometry x="251" y="244" width="94" height="61.5" as="geometry" />
        </mxCell>
        <mxCell id="tTK-zyydaF6mxMZGHGKh-59" style="edgeStyle=orthogonalEdgeStyle;rounded=0;orthogonalLoop=1;jettySize=auto;html=1;exitX=1;exitY=0.5;exitDx=0;exitDy=0;exitPerimeter=0;fontSize=14;" parent="1xEPdAz5YI3bWJv0vM2D-57" source="tTK-zyydaF6mxMZGHGKh-57" target="tTK-zyydaF6mxMZGHGKh-54" edge="1">
          <mxGeometry relative="1" as="geometry">
            <mxPoint x="177" y="242.16668701171875" as="targetPoint" />
          </mxGeometry>
        </mxCell>
        <mxCell id="tTK-zyydaF6mxMZGHGKh-66" value="[Thêm]" style="edgeLabel;html=1;align=center;verticalAlign=middle;resizable=0;points=[];fontSize=14;" parent="tTK-zyydaF6mxMZGHGKh-59" vertex="1" connectable="0">
          <mxGeometry x="-0.5917" y="2" relative="1" as="geometry">
            <mxPoint x="16" y="2" as="offset" />
          </mxGeometry>
        </mxCell>
        <mxCell id="tTK-zyydaF6mxMZGHGKh-96" value="" style="edgeStyle=orthogonalEdgeStyle;rounded=0;orthogonalLoop=1;jettySize=auto;html=1;fontSize=14;" parent="1xEPdAz5YI3bWJv0vM2D-57" source="tTK-zyydaF6mxMZGHGKh-92" target="tTK-zyydaF6mxMZGHGKh-75" edge="1">
          <mxGeometry relative="1" as="geometry" />
        </mxCell>
        <mxCell id="tTK-zyydaF6mxMZGHGKh-92" value="Chọn sản phẩm muốn thêm" style="rounded=1;whiteSpace=wrap;html=1;arcSize=40;fontColor=#000000;fillColor=#FFFFFF;strokeColor=#000000;fontSize=14;" parent="1xEPdAz5YI3bWJv0vM2D-57" vertex="1">
          <mxGeometry x="263" y="317" width="94" height="61.5" as="geometry" />
        </mxCell>
        <mxCell id="tTK-zyydaF6mxMZGHGKh-107" value="" style="strokeWidth=2;html=1;shape=mxgraph.flowchart.decision;whiteSpace=wrap;fontSize=14;" parent="1xEPdAz5YI3bWJv0vM2D-57" vertex="1">
          <mxGeometry x="267" y="551" width="50" height="35" as="geometry" />
        </mxCell>
        <mxCell id="tTK-zyydaF6mxMZGHGKh-108" style="edgeStyle=orthogonalEdgeStyle;rounded=0;orthogonalLoop=1;jettySize=auto;html=1;exitX=0.5;exitY=1;exitDx=0;exitDy=0;exitPerimeter=0;fontSize=14;" parent="1xEPdAz5YI3bWJv0vM2D-57" source="tTK-zyydaF6mxMZGHGKh-107" target="1xEPdAz5YI3bWJv0vM2D-63" edge="1">
          <mxGeometry relative="1" as="geometry" />
        </mxCell>
        <mxCell id="tTK-zyydaF6mxMZGHGKh-109" value="[Hoàn tất]" style="edgeLabel;html=1;align=center;verticalAlign=middle;resizable=0;points=[];fontSize=14;" parent="tTK-zyydaF6mxMZGHGKh-108" vertex="1" connectable="0">
          <mxGeometry x="-0.9384" y="1" relative="1" as="geometry">
            <mxPoint as="offset" />
          </mxGeometry>
        </mxCell>
        <mxCell id="tTK-zyydaF6mxMZGHGKh-113" style="edgeStyle=orthogonalEdgeStyle;rounded=0;orthogonalLoop=1;jettySize=auto;html=1;exitX=0;exitY=0.5;exitDx=0;exitDy=0;exitPerimeter=0;entryX=0.108;entryY=0.996;entryDx=0;entryDy=0;entryPerimeter=0;fontSize=14;" parent="1xEPdAz5YI3bWJv0vM2D-57" source="tTK-zyydaF6mxMZGHGKh-107" target="1xEPdAz5YI3bWJv0vM2D-62" edge="1">
          <mxGeometry relative="1" as="geometry" />
        </mxCell>
        <mxCell id="tTK-zyydaF6mxMZGHGKh-114" value="[Chưa]" style="edgeLabel;html=1;align=center;verticalAlign=middle;resizable=0;points=[];fontSize=14;" parent="tTK-zyydaF6mxMZGHGKh-113" vertex="1" connectable="0">
          <mxGeometry x="-0.8855" y="-2" relative="1" as="geometry">
            <mxPoint x="-14" y="2" as="offset" />
          </mxGeometry>
        </mxCell>
        <mxCell id="tTK-zyydaF6mxMZGHGKh-115" value="[Hóa đơn đã hoàn tất&lt;div&gt;theo ý của khách hàng?]&lt;/div&gt;" style="text;html=1;align=center;verticalAlign=middle;resizable=0;points=[];autosize=1;strokeColor=none;fillColor=none;fontSize=14;" parent="1xEPdAz5YI3bWJv0vM2D-57" vertex="1">
          <mxGeometry x="223" y="508" width="171" height="46" as="geometry" />
        </mxCell>
        <mxCell id="tTK-zyydaF6mxMZGHGKh-152" value="Chọn chức năng Áp dụng khuyến mãi" style="rounded=1;whiteSpace=wrap;html=1;arcSize=40;fontColor=#000000;fillColor=#FFFFFF;strokeColor=#000000;fontSize=14;" parent="1xEPdAz5YI3bWJv0vM2D-57" vertex="1">
          <mxGeometry x="112" y="1208" width="151" height="55" as="geometry" />
        </mxCell>
        <mxCell id="tTK-zyydaF6mxMZGHGKh-156" value="Chọn khuyến mãi theo yêu cầu khách hàng" style="rounded=1;whiteSpace=wrap;html=1;arcSize=40;fontColor=#000000;fillColor=#FFFFFF;strokeColor=#000000;fontSize=14;" parent="1xEPdAz5YI3bWJv0vM2D-57" vertex="1">
          <mxGeometry x="118" y="1308" width="151" height="55" as="geometry" />
        </mxCell>
        <mxCell id="tTK-zyydaF6mxMZGHGKh-150" value="Thanh&lt;span style=&quot;background-color: transparent; color: light-dark(rgb(0, 0, 0), rgb(237, 237, 237));&quot;&gt;&amp;nbsp;toán cho khách hàng&lt;/span&gt;" style="rounded=1;whiteSpace=wrap;html=1;arcSize=40;fontColor=#000000;fillColor=#FFFFFF;strokeColor=#000000;fontSize=14;" parent="1xEPdAz5YI3bWJv0vM2D-57" vertex="1">
          <mxGeometry x="232" y="1467" width="120" height="40" as="geometry" />
        </mxCell>
        <mxCell id="tTK-zyydaF6mxMZGHGKh-165" style="edgeStyle=orthogonalEdgeStyle;rounded=0;orthogonalLoop=1;jettySize=auto;html=1;exitX=0.5;exitY=1;exitDx=0;exitDy=0;entryX=0;entryY=0.5;entryDx=0;entryDy=0;fontSize=14;" parent="1xEPdAz5YI3bWJv0vM2D-57" source="tTK-zyydaF6mxMZGHGKh-163" target="tTK-zyydaF6mxMZGHGKh-150" edge="1">
          <mxGeometry relative="1" as="geometry" />
        </mxCell>
        <mxCell id="tTK-zyydaF6mxMZGHGKh-163" value="Chọn phương thừc thanh toán theo yêu cầu khách hàng" style="rounded=1;whiteSpace=wrap;html=1;arcSize=40;fontColor=#000000;fillColor=#FFFFFF;strokeColor=#000000;fontSize=14;" parent="1xEPdAz5YI3bWJv0vM2D-57" vertex="1">
          <mxGeometry x="92" y="1404" width="151" height="55" as="geometry" />
        </mxCell>
        <mxCell id="tTK-zyydaF6mxMZGHGKh-192" style="edgeStyle=orthogonalEdgeStyle;rounded=0;orthogonalLoop=1;jettySize=auto;html=1;exitX=0;exitY=0.5;exitDx=0;exitDy=0;exitPerimeter=0;entryX=0;entryY=0.5;entryDx=0;entryDy=0;fontSize=14;" parent="1xEPdAz5YI3bWJv0vM2D-57" source="tTK-zyydaF6mxMZGHGKh-182" target="tTK-zyydaF6mxMZGHGKh-163" edge="1">
          <mxGeometry relative="1" as="geometry">
            <Array as="points">
              <mxPoint x="150" y="1687" />
              <mxPoint x="72" y="1687" />
              <mxPoint x="72" y="1431" />
            </Array>
          </mxGeometry>
        </mxCell>
        <mxCell id="tTK-zyydaF6mxMZGHGKh-195" value="[Đổi phương thức&lt;div&gt;thanh toán]&lt;/div&gt;" style="edgeLabel;html=1;align=center;verticalAlign=middle;resizable=0;points=[];fontSize=14;" parent="tTK-zyydaF6mxMZGHGKh-192" vertex="1" connectable="0">
          <mxGeometry x="-0.7571" y="-1" relative="1" as="geometry">
            <mxPoint x="-43" y="-21" as="offset" />
          </mxGeometry>
        </mxCell>
        <mxCell id="tTK-zyydaF6mxMZGHGKh-182" value="" style="strokeWidth=2;html=1;shape=mxgraph.flowchart.decision;whiteSpace=wrap;fontSize=14;" parent="1xEPdAz5YI3bWJv0vM2D-57" vertex="1">
          <mxGeometry x="150" y="1665" width="50" height="40" as="geometry" />
        </mxCell>
        <mxCell id="tTK-zyydaF6mxMZGHGKh-183" value="Thực hiện thao tác xử lý khi thanh toán thất bại" style="rounded=1;whiteSpace=wrap;html=1;arcSize=40;fontColor=#000000;fillColor=#FFFFFF;strokeColor=#000000;fontSize=14;" parent="1xEPdAz5YI3bWJv0vM2D-57" vertex="1">
          <mxGeometry x="240" y="1655" width="131" height="60" as="geometry" />
        </mxCell>
        <mxCell id="tTK-zyydaF6mxMZGHGKh-191" style="edgeStyle=orthogonalEdgeStyle;rounded=0;orthogonalLoop=1;jettySize=auto;html=1;exitX=0;exitY=0.5;exitDx=0;exitDy=0;entryX=1;entryY=0.5;entryDx=0;entryDy=0;entryPerimeter=0;fontSize=14;" parent="1xEPdAz5YI3bWJv0vM2D-57" source="tTK-zyydaF6mxMZGHGKh-183" target="tTK-zyydaF6mxMZGHGKh-182" edge="1">
          <mxGeometry relative="1" as="geometry" />
        </mxCell>
        <mxCell id="tTK-zyydaF6mxMZGHGKh-142" value="Gửi lại hóa đơn qua email hoặc in lại sau" style="rounded=1;whiteSpace=wrap;html=1;arcSize=40;fontColor=#000000;fillColor=#FFFFFF;strokeColor=#000000;fontSize=14;" parent="1xEPdAz5YI3bWJv0vM2D-57" vertex="1">
          <mxGeometry x="64" y="1782.5" width="150" height="55" as="geometry" />
        </mxCell>
        <mxCell id="1xEPdAz5YI3bWJv0vM2D-66" style="edgeStyle=orthogonalEdgeStyle;rounded=0;orthogonalLoop=1;jettySize=auto;html=1;exitX=1;exitY=0.5;exitDx=0;exitDy=0;fontSize=14;" parent="1" source="1xEPdAz5YI3bWJv0vM2D-58" target="1xEPdAz5YI3bWJv0vM2D-2" edge="1">
          <mxGeometry relative="1" as="geometry" />
        </mxCell>
        <mxCell id="1xEPdAz5YI3bWJv0vM2D-67" style="edgeStyle=orthogonalEdgeStyle;rounded=0;orthogonalLoop=1;jettySize=auto;html=1;exitX=0.5;exitY=1;exitDx=0;exitDy=0;entryX=1;entryY=0.5;entryDx=0;entryDy=0;fontSize=14;" parent="1" source="1xEPdAz5YI3bWJv0vM2D-2" target="1xEPdAz5YI3bWJv0vM2D-62" edge="1">
          <mxGeometry relative="1" as="geometry" />
        </mxCell>
        <mxCell id="tTK-zyydaF6mxMZGHGKh-28" style="edgeStyle=orthogonalEdgeStyle;rounded=0;orthogonalLoop=1;jettySize=auto;html=1;exitX=0;exitY=0.5;exitDx=0;exitDy=0;entryX=0.5;entryY=1;entryDx=0;entryDy=0;fontSize=14;" parent="1" source="1xEPdAz5YI3bWJv0vM2D-11" target="1xEPdAz5YI3bWJv0vM2D-63" edge="1">
          <mxGeometry relative="1" as="geometry" />
        </mxCell>
        <mxCell id="tTK-zyydaF6mxMZGHGKh-29" style="edgeStyle=orthogonalEdgeStyle;rounded=0;orthogonalLoop=1;jettySize=auto;html=1;exitX=1;exitY=0.25;exitDx=0;exitDy=0;entryX=0;entryY=0.75;entryDx=0;entryDy=0;fontSize=14;" parent="1" source="1xEPdAz5YI3bWJv0vM2D-63" target="tTK-zyydaF6mxMZGHGKh-23" edge="1">
          <mxGeometry relative="1" as="geometry" />
        </mxCell>
        <mxCell id="tTK-zyydaF6mxMZGHGKh-39" style="edgeStyle=orthogonalEdgeStyle;rounded=0;orthogonalLoop=1;jettySize=auto;html=1;exitX=1;exitY=0.5;exitDx=0;exitDy=0;entryX=0;entryY=0.5;entryDx=0;entryDy=0;fontSize=14;" parent="1" source="1xEPdAz5YI3bWJv0vM2D-65" target="tTK-zyydaF6mxMZGHGKh-13" edge="1">
          <mxGeometry relative="1" as="geometry" />
        </mxCell>
        <mxCell id="tTK-zyydaF6mxMZGHGKh-43" style="edgeStyle=orthogonalEdgeStyle;rounded=0;orthogonalLoop=1;jettySize=auto;html=1;exitX=0;exitY=0.5;exitDx=0;exitDy=0;entryX=0.5;entryY=1;entryDx=0;entryDy=0;fontSize=14;" parent="1" source="1xEPdAz5YI3bWJv0vM2D-12" target="1xEPdAz5YI3bWJv0vM2D-65" edge="1">
          <mxGeometry relative="1" as="geometry" />
        </mxCell>
        <mxCell id="tTK-zyydaF6mxMZGHGKh-47" style="edgeStyle=orthogonalEdgeStyle;rounded=0;orthogonalLoop=1;jettySize=auto;html=1;exitX=0;exitY=0.5;exitDx=0;exitDy=0;fontSize=14;" parent="1" source="1xEPdAz5YI3bWJv0vM2D-47" target="1xEPdAz5YI3bWJv0vM2D-65" edge="1">
          <mxGeometry relative="1" as="geometry" />
        </mxCell>
        <mxCell id="tTK-zyydaF6mxMZGHGKh-67" value="[Sửa]" style="text;html=1;align=center;verticalAlign=middle;resizable=0;points=[];autosize=1;strokeColor=none;fillColor=none;fontSize=14;" parent="1" vertex="1">
          <mxGeometry x="8" y="-29" width="52" height="29" as="geometry" />
        </mxCell>
        <mxCell id="tTK-zyydaF6mxMZGHGKh-84" style="edgeStyle=orthogonalEdgeStyle;rounded=0;orthogonalLoop=1;jettySize=auto;html=1;exitX=1;exitY=0.5;exitDx=0;exitDy=0;entryX=0;entryY=0.5;entryDx=0;entryDy=0;fontSize=14;" parent="1" source="tTK-zyydaF6mxMZGHGKh-75" target="tTK-zyydaF6mxMZGHGKh-68" edge="1">
          <mxGeometry relative="1" as="geometry">
            <mxPoint x="386" y="68.49999999999989" as="sourcePoint" />
          </mxGeometry>
        </mxCell>
        <mxCell id="tTK-zyydaF6mxMZGHGKh-88" style="edgeStyle=orthogonalEdgeStyle;rounded=0;orthogonalLoop=1;jettySize=auto;html=1;exitX=1;exitY=0.5;exitDx=0;exitDy=0;entryX=-0.011;entryY=0.604;entryDx=0;entryDy=0;entryPerimeter=0;fontSize=14;" parent="1" source="tTK-zyydaF6mxMZGHGKh-54" target="tTK-zyydaF6mxMZGHGKh-89" edge="1">
          <mxGeometry relative="1" as="geometry">
            <mxPoint x="399.666748046875" y="-51.83333333333326" as="targetPoint" />
          </mxGeometry>
        </mxCell>
        <mxCell id="tTK-zyydaF6mxMZGHGKh-95" style="edgeStyle=orthogonalEdgeStyle;rounded=0;orthogonalLoop=1;jettySize=auto;html=1;exitX=0.5;exitY=1;exitDx=0;exitDy=0;entryX=1;entryY=0.5;entryDx=0;entryDy=0;fontSize=14;" parent="1" source="tTK-zyydaF6mxMZGHGKh-89" target="tTK-zyydaF6mxMZGHGKh-92" edge="1">
          <mxGeometry relative="1" as="geometry" />
        </mxCell>
        <mxCell id="tTK-zyydaF6mxMZGHGKh-97" style="edgeStyle=orthogonalEdgeStyle;rounded=0;orthogonalLoop=1;jettySize=auto;html=1;exitX=0;exitY=0.5;exitDx=0;exitDy=0;exitPerimeter=0;entryX=0;entryY=0.5;entryDx=0;entryDy=0;entryPerimeter=0;fontSize=14;" parent="1" source="tTK-zyydaF6mxMZGHGKh-57" target="tTK-zyydaF6mxMZGHGKh-63" edge="1">
          <mxGeometry relative="1" as="geometry">
            <Array as="points">
              <mxPoint x="-19" y="-51" />
              <mxPoint x="-19" y="179" />
            </Array>
          </mxGeometry>
        </mxCell>
        <mxCell id="tTK-zyydaF6mxMZGHGKh-98" value="[Xóa]" style="edgeLabel;html=1;align=center;verticalAlign=middle;resizable=0;points=[];fontSize=14;" parent="tTK-zyydaF6mxMZGHGKh-97" vertex="1" connectable="0">
          <mxGeometry x="-0.8343" y="1" relative="1" as="geometry">
            <mxPoint as="offset" />
          </mxGeometry>
        </mxCell>
        <mxCell id="tTK-zyydaF6mxMZGHGKh-102" style="edgeStyle=orthogonalEdgeStyle;rounded=0;orthogonalLoop=1;jettySize=auto;html=1;exitX=0;exitY=0.75;exitDx=0;exitDy=0;entryX=0.75;entryY=0;entryDx=0;entryDy=0;fontSize=14;" parent="1" source="tTK-zyydaF6mxMZGHGKh-86" target="tTK-zyydaF6mxMZGHGKh-75" edge="1">
          <mxGeometry relative="1" as="geometry">
            <Array as="points">
              <mxPoint x="610" y="5" />
              <mxPoint x="610" y="59" />
              <mxPoint x="246" y="59" />
            </Array>
          </mxGeometry>
        </mxCell>
        <mxCell id="tTK-zyydaF6mxMZGHGKh-112" value="" style="edgeStyle=orthogonalEdgeStyle;rounded=0;orthogonalLoop=1;jettySize=auto;html=1;fontSize=14;" parent="1" source="tTK-zyydaF6mxMZGHGKh-105" target="tTK-zyydaF6mxMZGHGKh-107" edge="1">
          <mxGeometry relative="1" as="geometry" />
        </mxCell>
        <mxCell id="tTK-zyydaF6mxMZGHGKh-46" style="edgeStyle=orthogonalEdgeStyle;rounded=0;orthogonalLoop=1;jettySize=auto;html=1;exitX=0;exitY=0.5;exitDx=0;exitDy=0;exitPerimeter=0;fontSize=14;entryX=0.492;entryY=0.025;entryDx=0;entryDy=0;entryPerimeter=0;" parent="1" source="1xEPdAz5YI3bWJv0vM2D-44" target="tTK-zyydaF6mxMZGHGKh-152" edge="1">
          <mxGeometry relative="1" as="geometry">
            <mxPoint x="121" y="887" as="targetPoint" />
          </mxGeometry>
        </mxCell>
        <mxCell id="tTK-zyydaF6mxMZGHGKh-153" style="edgeStyle=orthogonalEdgeStyle;rounded=0;orthogonalLoop=1;jettySize=auto;html=1;exitX=1;exitY=0.5;exitDx=0;exitDy=0;entryX=0;entryY=0.5;entryDx=0;entryDy=0;fontSize=14;" parent="1" source="tTK-zyydaF6mxMZGHGKh-152" target="tTK-zyydaF6mxMZGHGKh-154" edge="1">
          <mxGeometry relative="1" as="geometry">
            <mxPoint x="532.0000762939453" y="908.5" as="targetPoint" />
          </mxGeometry>
        </mxCell>
        <mxCell id="tTK-zyydaF6mxMZGHGKh-157" style="edgeStyle=orthogonalEdgeStyle;rounded=0;orthogonalLoop=1;jettySize=auto;html=1;exitX=0.25;exitY=1;exitDx=0;exitDy=0;fontSize=14;" parent="1" source="tTK-zyydaF6mxMZGHGKh-154" target="tTK-zyydaF6mxMZGHGKh-156" edge="1">
          <mxGeometry relative="1" as="geometry" />
        </mxCell>
        <mxCell id="tTK-zyydaF6mxMZGHGKh-158" style="edgeStyle=orthogonalEdgeStyle;rounded=0;orthogonalLoop=1;jettySize=auto;html=1;exitX=1;exitY=0.5;exitDx=0;exitDy=0;fontSize=14;" parent="1" source="tTK-zyydaF6mxMZGHGKh-156" target="tTK-zyydaF6mxMZGHGKh-160" edge="1">
          <mxGeometry relative="1" as="geometry">
            <mxPoint x="564.8947625411183" y="1008.8947368421054" as="targetPoint" />
          </mxGeometry>
        </mxCell>
        <mxCell id="tTK-zyydaF6mxMZGHGKh-151" style="edgeStyle=orthogonalEdgeStyle;rounded=0;orthogonalLoop=1;jettySize=auto;html=1;exitX=1;exitY=0.5;exitDx=0;exitDy=0;entryX=0;entryY=0.5;entryDx=0;entryDy=0;fontSize=14;" parent="1" source="tTK-zyydaF6mxMZGHGKh-150" target="tTK-zyydaF6mxMZGHGKh-117" edge="1">
          <mxGeometry relative="1" as="geometry">
            <mxPoint x="580" y="1720" as="targetPoint" />
            <Array as="points" />
          </mxGeometry>
        </mxCell>
        <mxCell id="tTK-zyydaF6mxMZGHGKh-162" style="edgeStyle=orthogonalEdgeStyle;rounded=0;orthogonalLoop=1;jettySize=auto;html=1;exitX=0.5;exitY=1;exitDx=0;exitDy=0;fontSize=14;" parent="1" source="tTK-zyydaF6mxMZGHGKh-160" target="tTK-zyydaF6mxMZGHGKh-163" edge="1">
          <mxGeometry relative="1" as="geometry" />
        </mxCell>
        <mxCell id="tTK-zyydaF6mxMZGHGKh-193" style="edgeStyle=orthogonalEdgeStyle;rounded=0;orthogonalLoop=1;jettySize=auto;html=1;exitX=0.167;exitY=1.005;exitDx=0;exitDy=0;endArrow=none;startFill=1;startArrow=classic;fontSize=14;entryX=0.5;entryY=0;entryDx=0;entryDy=0;entryPerimeter=0;exitPerimeter=0;" parent="1" source="tTK-zyydaF6mxMZGHGKh-117" target="tTK-zyydaF6mxMZGHGKh-182" edge="1">
          <mxGeometry relative="1" as="geometry">
            <mxPoint x="79" y="1336" as="targetPoint" />
            <Array as="points">
              <mxPoint x="339" y="1225" />
              <mxPoint x="83" y="1225" />
            </Array>
          </mxGeometry>
        </mxCell>
        <mxCell id="tTK-zyydaF6mxMZGHGKh-194" value="[Thanh toán lại]" style="edgeLabel;html=1;align=center;verticalAlign=middle;resizable=0;points=[];fontSize=14;" parent="tTK-zyydaF6mxMZGHGKh-193" vertex="1" connectable="0">
          <mxGeometry x="0.8745" relative="1" as="geometry">
            <mxPoint x="10" y="-7" as="offset" />
          </mxGeometry>
        </mxCell>
        <mxCell id="tTK-zyydaF6mxMZGHGKh-143" style="edgeStyle=orthogonalEdgeStyle;rounded=0;orthogonalLoop=1;jettySize=auto;html=1;exitX=0;exitY=0.5;exitDx=0;exitDy=0;exitPerimeter=0;entryX=1;entryY=0.5;entryDx=0;entryDy=0;fontSize=14;" parent="1" source="tTK-zyydaF6mxMZGHGKh-135" target="tTK-zyydaF6mxMZGHGKh-142" edge="1">
          <mxGeometry relative="1" as="geometry">
            <mxPoint x="180" y="1420" as="targetPoint" />
          </mxGeometry>
        </mxCell>
        <mxCell id="tTK-zyydaF6mxMZGHGKh-144" value="[Thất bại]" style="edgeLabel;html=1;align=center;verticalAlign=middle;resizable=0;points=[];fontSize=14;" parent="tTK-zyydaF6mxMZGHGKh-143" vertex="1" connectable="0">
          <mxGeometry x="0.1301" y="-2" relative="1" as="geometry">
            <mxPoint as="offset" />
          </mxGeometry>
        </mxCell>
        <mxCell id="tTK-zyydaF6mxMZGHGKh-145" style="edgeStyle=orthogonalEdgeStyle;rounded=0;orthogonalLoop=1;jettySize=auto;html=1;exitX=0.5;exitY=1;exitDx=0;exitDy=0;entryX=0;entryY=0.5;entryDx=0;entryDy=0;fontSize=14;" parent="1" source="tTK-zyydaF6mxMZGHGKh-142" target="tTK-zyydaF6mxMZGHGKh-116" edge="1">
          <mxGeometry relative="1" as="geometry" />
        </mxCell>
        <mxCell id="tTK-zyydaF6mxMZGHGKh-196" style="edgeStyle=orthogonalEdgeStyle;rounded=0;orthogonalLoop=1;jettySize=auto;html=1;exitX=0.5;exitY=1;exitDx=0;exitDy=0;exitPerimeter=0;fontSize=14;entryX=0;entryY=0.5;entryDx=0;entryDy=0;" parent="1" source="tTK-zyydaF6mxMZGHGKh-182" target="tTK-zyydaF6mxMZGHGKh-200" edge="1">
          <mxGeometry relative="1" as="geometry">
            <mxPoint x="459" y="1444" as="targetPoint" />
          </mxGeometry>
        </mxCell>
        <mxCell id="tTK-zyydaF6mxMZGHGKh-197" value="[Hủy thanh toán]" style="edgeLabel;html=1;align=center;verticalAlign=middle;resizable=0;points=[];fontSize=14;" parent="tTK-zyydaF6mxMZGHGKh-196" vertex="1" connectable="0">
          <mxGeometry x="-0.0943" y="-2" relative="1" as="geometry">
            <mxPoint x="-142" y="-12" as="offset" />
          </mxGeometry>
        </mxCell>
        <mxCell id="tTK-zyydaF6mxMZGHGKh-207" style="edgeStyle=orthogonalEdgeStyle;rounded=0;orthogonalLoop=1;jettySize=auto;html=1;exitX=0.5;exitY=1;exitDx=0;exitDy=0;exitPerimeter=0;entryX=1;entryY=0.5;entryDx=0;entryDy=0;fontSize=14;" parent="1" source="tTK-zyydaF6mxMZGHGKh-204" target="tTK-zyydaF6mxMZGHGKh-183" edge="1">
          <mxGeometry relative="1" as="geometry" />
        </mxCell>
        <mxCell id="tTK-zyydaF6mxMZGHGKh-208" value="[Thanh toán&lt;div&gt;thất bại]&lt;/div&gt;" style="edgeLabel;html=1;align=center;verticalAlign=middle;resizable=0;points=[];fontSize=14;" parent="tTK-zyydaF6mxMZGHGKh-207" vertex="1" connectable="0">
          <mxGeometry x="-0.8914" y="4" relative="1" as="geometry">
            <mxPoint x="-4" y="18" as="offset" />
          </mxGeometry>
        </mxCell>
      </root>
    </mxGraphModel>
  </diagram>
</mxfile>
